<?xml version="1.0" encoding="UTF-8"?>
<svg width="767px" height="847px" viewBox="0 0 767 847" version="1.1" xmlns="http://www.w3.org/2000/svg" xmlns:xlink="http://www.w3.org/1999/xlink">
    <!-- Generator: Sketch 43.2 (39069) - http://www.bohemiancoding.com/sketch -->
    <title>Untitled 2</title>
    <desc>Created with Sketch.</desc>
    <defs>
        <path d="M65.866,11.927 C65.866,17.86 67.089,95.5 65.866,100.856 C64.642,106.213 61.263,107.67 57.418,102.306 C53.572,96.942 51.529,38.028 49.224,23.947 C46.918,9.867 31.909,11.927 31.909,25.273 C31.909,38.619 39.178,97.566 38.16,105.994 C37.14,114.422 31.909,113.01 28.198,107.67 C24.488,102.33 21.492,60.081 19.022,48.979 C16.551,37.876 0.589,40.447 0.589,52.28 C0.589,64.112 4.91,85.845 7.15,117.284 C8.115,130.823 6.478,139.791 7.15,152.206 C7.823,164.622 9.306,173.119 11.127,182.379 C14.324,198.643 21.746,206.759 28.819,215.391 C35.892,224.023 37.14,709.256 37.14,709.256 L113.203,709.095 C113.203,709.095 88.62,236.318 100.911,211.513 C113.203,186.708 154.806,132.975 160.629,120.323 C166.451,107.67 150.5,103.525 146.235,106.984 C141.969,110.442 132.751,131.507 127.058,134.003 C121.366,136.499 116.81,138.697 114.473,117.284 C112.136,95.872 116.84,41.496 115.021,29.114 C113.203,16.732 103.35,11.927 98.91,28.143 C94.47,44.359 97.243,94.137 95.131,100.903 C93.018,107.67 86.215,110.358 84.089,100.856 C81.961,91.355 86.283,33.844 82.686,11.927 C81.316,3.576 78.55,0.727 75.648,0.728 C70.934,0.729 65.866,8.254 65.866,11.927 Z" id="path-1"></path>
        <linearGradient x1="33.2589353%" y1="99.9999741%" x2="-479.533493%" y2="-1332.37231%" id="linearGradient-3">
            <stop stop-color="#0EB892" offset="0%"></stop>
            <stop stop-color="#68EFAD" offset="100%"></stop>
        </linearGradient>
        <linearGradient x1="98.7448267%" y1="51.8799017%" x2="38.5037183%" y2="56.8574981%" id="linearGradient-4">
            <stop stop-color="#0EB892" offset="0%"></stop>
            <stop stop-color="#68EFAD" offset="100%"></stop>
        </linearGradient>
        <path d="M65.889,11.994 C65.889,17.928 67.112,95.566 65.889,100.923 C64.666,106.281 61.286,107.737 57.44,102.373 C53.596,97.009 51.553,38.095 49.247,24.014 C46.941,9.934 31.931,11.994 31.931,25.34 C31.931,38.686 39.202,97.634 38.182,106.061 C37.164,114.489 31.931,113.078 28.221,107.737 C24.511,102.397 21.515,60.149 19.045,49.046 C16.575,37.944 0.612,40.514 0.612,52.346 C0.612,64.18 4.934,85.912 7.174,117.352 C8.138,130.889 6.502,139.858 7.174,152.273 C7.846,164.689 9.329,173.185 11.151,182.446 C14.349,198.71 21.769,206.826 28.842,215.458 C35.915,224.09 33.329,566.346 33.329,566.346 L104.375,526.151 C104.375,526.151 88.643,236.385 100.935,211.58 C113.225,186.775 154.829,133.042 160.652,120.39 C166.475,107.737 150.522,103.592 146.258,107.051 C141.993,110.509 132.774,131.574 127.082,134.07 C121.389,136.566 116.833,138.764 114.497,117.352 C112.16,95.939 116.863,41.563 115.044,29.181 C113.225,16.799 103.374,11.994 98.933,28.21 C94.493,44.426 97.266,94.205 95.154,100.971 C93.042,107.737 86.239,110.425 84.112,100.923 C81.985,91.422 86.306,33.912 82.71,11.994 C81.339,3.643 78.573,0.794 75.671,0.795 C70.957,0.796 65.889,8.32 65.889,11.994 Z" id="path-5"></path>
        <polygon id="path-7" points="17.1608415 64.7384262 0.981 6.157 8.83018136 3.10943968 20.3056828 0.870024229 36.059 58.966 17.1664804 64.7373258 17.1608415 64.7384262"></polygon>
        <linearGradient x1="0.00113715181%" y1="7.09989633%" x2="512.793566%" y2="1439.47218%" id="linearGradient-9">
            <stop stop-color="#1AC09B" offset="0%"></stop>
            <stop stop-color="#14A080" offset="100%"></stop>
        </linearGradient>
        <linearGradient x1="88.3466483%" y1="28.801787%" x2="36.8221607%" y2="48.3348424%" id="linearGradient-10">
            <stop stop-color="#1AC09B" offset="0%"></stop>
            <stop stop-color="#14A080" offset="100%"></stop>
        </linearGradient>
        <path d="M66.255,11.211 C66.255,17.145 67.479,94.784 66.255,100.141 C65.032,105.497 61.653,106.955 57.808,101.591 C53.962,96.227 51.919,37.312 49.613,23.232 C47.308,9.151 32.297,11.211 32.297,24.558 C32.297,37.904 39.569,96.851 38.549,105.279 C37.531,113.706 32.297,112.295 28.588,106.955 C24.878,101.614 21.882,59.366 19.411,48.263 C16.942,37.16 0.978,39.732 0.978,51.565 C0.978,63.397 5.3,85.13 7.54,116.569 C8.505,130.107 6.869,139.076 7.54,151.491 C8.213,163.906 9.697,172.403 11.517,181.664 C14.714,197.927 22.136,206.043 29.209,214.676 C36.282,223.307 36.501,514.151 36.501,514.151 L105.675,554.346 C105.675,554.346 89.01,235.602 101.301,210.797 C113.593,185.993 155.196,132.26 161.018,119.608 C166.841,106.955 150.89,102.81 146.624,106.268 C142.359,109.727 133.141,130.792 127.448,133.289 C121.756,135.783 117.2,137.981 114.863,116.569 C112.526,95.156 117.23,40.781 115.411,28.399 C113.593,16.017 103.74,11.211 99.301,27.428 C94.86,43.644 97.633,93.422 95.521,100.188 C93.408,106.955 86.605,109.642 84.479,100.141 C82.352,90.639 86.674,33.129 83.076,11.211 C81.706,2.86 78.939,0.011 76.038,0.012 C71.324,0.013 66.255,7.538 66.255,11.211 Z" id="path-11"></path>
    </defs>
    <g id="Page-1" stroke="none" stroke-width="1" fill="none" fill-rule="evenodd">
        <g id="outras-aplicacoes" transform="translate(58.000000, 0.000000)">
            <polygon id="Fill-74" fill="#FFFFFF" points="655.9697 614.5127 655.9697 242.4677 333.7687 56.4457 11.5687 242.4677 11.5687 614.5127 333.7687 800.5347"></polygon>
            <g id="Group-77" transform="translate(250.000000, 88.000000)">
                <mask id="mask-2" fill="white">
                    <use xlink:href="#path-1"></use>
                </mask>
                <g id="Clip-76"></g>
                <polygon id="Fill-75" fill="#691A99" mask="url(#mask-2)" points="-4.085 713.93 166.566 713.93 166.566 -3.946 -4.085 -3.946"></polygon>
            </g>
            <g id="Group-82" transform="translate(259.000000, 184.000000)" font-family="Circuitboard, Circuit board" fill="#CC8FD7" font-weight="normal">
                <text id="j" font-size="205.6553">
                    <tspan x="0.376" y="175.1635">j</tspan>
                </text>
                <text id="i" font-size="205.6553">
                    <tspan x="42.0767" y="473.3637">i</tspan>
                </text>
                <text id="f" font-size="134.6107">
                    <tspan x="25.5215" y="290.9054">f</tspan>
                </text>
                <text id="t" font-size="134.6107">
                    <tspan x="42.2134" y="349.7975">t</tspan>
                </text>
            </g>
            <polygon id="Fill-83" fill="#68EFAD" points="147.6546 447.7164 162.3476 509.6394 473.0936 506.8764 461.4546 447.2394"></polygon>
            <polygon id="Fill-84" fill="url(#linearGradient-3)" points="449.566 510.176 473.43 505.519 461.538 444.585 437.674 449.242"></polygon>
            <polygon id="Fill-86" fill="url(#linearGradient-4)" points="442.248 448.35 449.281 508.717 468.55 506.471 461.93 446.596 461.93 446.594"></polygon>
            <polygon id="Fill-88" fill="#58CE94" points="373.9821 447.6895 374.9161 511.2555 444.5971 509.7085 444.3931 484.2625 437.0911 446.8485"></polygon>
            <g id="Group-91" transform="translate(350.000000, 216.000000)">
                <mask id="mask-6" fill="white">
                    <use xlink:href="#path-5"></use>
                </mask>
                <g id="Clip-90"></g>
                <polygon id="Fill-89" fill="#BF77CE" mask="url(#mask-6)" points="-4.062 713.996 166.589 713.996 166.589 -3.879 -4.062 -3.879"></polygon>
            </g>
            <text id="l" font-family="Circuitboard, Circuit board" font-size="134.6107" font-weight="normal" fill="#D5BCF9">
                <tspan x="402.9375" y="701.9743">l</tspan>
            </text>
            <g id="Group-95" transform="translate(384.000000, 335.000000)" font-family="Circuitboard, Circuit board" fill="#D5BCF9" font-weight="normal">
                <text id="r" font-size="134.6107">
                    <tspan x="31.1279" y="115.5138">r</tspan>
                </text>
                <text id="i" font-size="269.2214">
                    <tspan x="0.6426" y="240.7317">i</tspan>
                </text>
            </g>
            <polygon id="Fill-96" fill="#1AC09B" points="170.934 566.9988 185.38 627.7918 473.311 507.9878 461.672 448.3508"></polygon>
            <g id="Group-99" transform="translate(171.000000, 561.000000)">
                <mask id="mask-8" fill="white">
                    <use xlink:href="#path-7"></use>
                </mask>
                <g id="Clip-98"></g>
                <polygon id="Fill-97" fill="url(#linearGradient-9)" mask="url(#mask-8)" points="0.695 4.697 24.559 0.04 36.451 60.974 12.587 65.631"></polygon>
            </g>
            <polygon id="Fill-100" fill="url(#linearGradient-10)" points="171.981 567.157 187.133 622.017 206.516 618.235 206.328 617.269 190.762 559.865"></polygon>
            <polygon id="Fill-102" fill="#13A080" points="184.218 561.7347 185.132 626.5797 242.175 601.9317 241.252 539.0887"></polygon>
            <g id="Group-105" transform="translate(158.000000, 228.000000)">
                <mask id="mask-12" fill="white">
                    <use xlink:href="#path-11"></use>
                </mask>
                <g id="Clip-104"></g>
                <polygon id="Fill-103" fill="#CBABF7" mask="url(#mask-12)" points="-3.695 713.214 166.956 713.214 166.956 -4.661 -3.695 -4.661"></polygon>
            </g>
            <g id="Group-109" transform="translate(189.000000, 317.000000)" font-family="Circuitboard, Circuit board" fill="#691979" font-weight="normal">
                <text id="i" font-size="269.2214">
                    <tspan x="11.4873" y="273.6888">i</tspan>
                </text>
                <text id="y" font-size="134.6107">
                    <tspan x="4.8242" y="390.5831">y</tspan>
                </text>
            </g>
            <polygon id="Fill-110" fill="#68EFAD" points="184.9056 627.4941 497.0876 629.8201 485.4486 570.1831 170.9286 566.9711"></polygon>
            <text id="DIVERSIDADE" font-family="SourceCodePro-Bold, Source Code Pro" font-size="43.9354" font-weight="bold" fill="#1AC09B">
                <tspan x="188.8008" y="610.921606">DIVERSIDADE</tspan>
            </text>
            <text id="APOIO" font-family="SourceCodePro-Bold, Source Code Pro" font-size="37.3919" font-weight="bold" fill="#1AC09B">
                <tspan x="258.0679" y="488.906011">APOIO</tspan>
            </text>
            <text id="A" font-family="SourceCodePro-Bold, Source Code Pro" font-size="43.9354" font-weight="bold" fill="#68EFAD">
                <tspan x="305.6484" y="550.833806">A</tspan>
            </text>
            <polygon id="Stroke-111" stroke="#662D91" stroke-width="37" points="645.3701 614.2163 645.3701 242.1713 323.1691 56.1493 0.9691 242.1713 0.9691 614.2163 323.1691 800.2393"></polygon>
        </g>
    </g>
</svg>